arrow video brrip of city of the living dead complete and uncut. please seed and enjoy


General
Complete name                            : C:DesktopCity of the Living Dead (1980) brripCity of the Living Dead (1980) brrip.mp4
Format                                   : MPEG-4
Format profile                           : Base Media
Codec ID                                 : isom
File size                                : 995 MiB
Duration                                 : 1h 32mn
Overall bit rate mode                    : Variable
Overall bit rate                         : 1 500 Kbps
Encoded date                             : UTC 2012-08-25 15:09:11
Tagged date                              : UTC 2012-08-25 15:09:11

Video
ID                                       : 1
Format                                   : AVC
Format/Info                              : Advanced Video Codec
Format profile                           : High@L4.0
Format settings, CABAC                   : Yes
Format settings, ReFrames                : 3 frames
Codec ID                                 : avc1
Codec ID/Info                            : Advanced Video Coding
Duration                                 : 1h 32mn
Bit rate mode                            : Variable
Bit rate                                 : 1 178 Kbps
Maximum bit rate                         : 25.0 Mbps
Width                                    : 1 908 pixels
Height                                   : 1 032 pixels
Display aspect ratio                     : 16:9
Frame rate mode                          : Constant
Frame rate                               : 23.976 fps
Color space                              : YUV
Chroma subsampling                       : 4:2:0
Bit depth                                : 8 bits
Scan type                                : Progressive
Bits/(Pixel*Frame)                       : 0.025
Stream size                              : 781 MiB (78%)
Writing library                          : x264 core 124 r2197 69a0443


Audio
ID                                       : 2
Format                                   : AAC
Format/Info                              : Advanced Audio Codec
Format profile                           : LC
Codec ID                                 : 40
Duration                                 : 1h 32mn
Bit rate mode                            : Variable
Bit rate                                 : 320 Kbps
Maximum bit rate                         : 330 Kbps
Channel(s)                               : 6 channels
Channel positions                        : Front: L C R, Side: L R, LFE
Sampling rate                            : 48.0 KHz
Compression mode                         : Lossy
Stream size                              : 212 MiB (21%)
Language                                 : English
Encoded date                             : UTC 2012-08-25 15:09:38
Tagged date                              : UTC 2012-08-25 15:10:08

Menu